<svg xmlns="http://www.w3.org/2000/svg" xmlns:xlink="http://www.w3.org/1999/xlink" width="302" height="302" viewBox="0 0 302 302">
  <defs>
    <linearGradient id="linear-gradient" x1="0.026" y1="0.582" x2="1" y2="0.587" gradientUnits="objectBoundingBox">
      <stop offset="0" stop-color="#3e84e0"/>
      <stop offset="1" stop-color="#514a9d"/>
    </linearGradient>
    <linearGradient id="linear-gradient-2" x1="0.5" y1="0.885" x2="0.5" y2="0.403" gradientUnits="objectBoundingBox">
      <stop offset="0" stop-opacity="0"/>
      <stop offset="0.477" stop-opacity="0.478"/>
      <stop offset="1" stop-opacity="0"/>
    </linearGradient>
  </defs>
  <g id="simplify-logo" transform="translate(0)" style="isolation: isolate">
    <path id="Trazado_214" data-name="Trazado 214" d="M66.9,0H235.1A66.9,66.9,0,0,1,302,66.9V235.1A66.9,66.9,0,0,1,235.1,302H66.9A66.9,66.9,0,0,1,0,235.1V66.9A66.9,66.9,0,0,1,66.9,0Z" transform="translate(0 0)" fill="url(#linear-gradient)"/>
    <g id="Grupo_284" data-name="Grupo 284" transform="translate(70.976 44.875)">
      <g id="Grupo_283" data-name="Grupo 283" transform="translate(89.11 50.333)">
        <path id="Trazado_187" data-name="Trazado 187" d="M4.835,0H76.386c2.67,0,4.835,2.483,4.835,5.545v9.981c0,3.062-2.165,5.545-4.835,5.545H4.835C2.165,21.071,0,18.588,0,15.526V5.545C0,2.483,2.165,0,4.835,0Z" transform="translate(0 0)" fill="#cecece"/>
        <path id="Trazado_188" data-name="Trazado 188" d="M1.721,0H72.846a1.874,1.874,0,0,1,1.721,2V12.421a1.874,1.874,0,0,1-1.721,2H1.721a1.874,1.874,0,0,1-1.721-2V2A1.874,1.874,0,0,1,1.721,0Z" transform="translate(3.578 3.327)" fill="#b2b2b2"/>
        <path id="Trazado_189" data-name="Trazado 189" d="M1.679,0H66.412c.927,0,1.679,1.3,1.679,2.894V9.97c0,1.6-.752,2.894-1.679,2.894H1.679C.752,12.864,0,11.568,0,9.97V2.894C0,1.3.752,0,1.679,0Z" transform="translate(6.36 2.492)" fill="url(#linear-gradient-2)"/>
      </g>
      <path id="Trazado_215" data-name="Trazado 215" d="M0,148.656l.277-.154,5.283-3.981,5.307,4H11.2l5.308-4,5.353,4.034H22.1l5.354-4.034,5.4,4.069h.152l5.4-4.069,5.445,4.1h.059l5.446-4.1,5.482,4.131-.01.008h.017s0,.083,0,.049c1.565,15.973,11.8,23.517,26.22,23.517,15.069,0,24.714-7.4,24.714-19.531C105.782,114.225,0,134.94.6,61.256.6,21.9,33.449,0,77.753,0c46.112,0,77.155,16.273,79.264,55.927H101.261c-.9-13.316-10.549-15.089-24.412-15.385-12.357-.3-21.7,5.918-21.7,18.939,0,36.1,104.581,19.827,104.581,89.368,0,34.919-27.728,63.919-77.155,63.919C37.111,212.767,1.574,190.617,0,148.656Z" transform="translate(0.001 5.096)" opacity="0.5"/>
      <path id="Trazado_216" data-name="Trazado 216" d="M0,145.82l.277-.151,5.283-3.9,5.307,3.922H11.2l5.308-3.923,5.353,3.957H22.1l5.354-3.957,5.4,3.991h.152l5.4-3.991,5.445,4.025h.059l5.446-4.025,5.482,4.052-.01.008h.017s0,.081,0,.048c1.565,15.668,11.8,23.068,26.22,23.068,15.069,0,24.714-7.257,24.714-19.158C105.782,112.046,0,132.365.6,60.087.6,21.48,33.449,0,77.753,0c46.112,0,77.155,22.061,79.264,60.958H101.261c-.9-13.062-10.549-20.9-24.412-21.19-12.357-.29-21.7,5.805-21.7,18.578,0,35.413,104.581,19.448,104.581,87.663,0,34.252-27.728,62.7-77.155,62.7C37.111,208.707,1.574,186.98,0,145.82Z" transform="translate(0.001 0)" fill="#fff"/>
    </g>
  </g>
</svg>
