<svg width="334" height="86" viewBox="0 0 334 86" fill="none" xmlns="http://www.w3.org/2000/svg">
<path d="M159.419 85.997V19.585H172.996V25.9529C175.456 22.0038 180.138 18.9411 186.651 18.9411C197.528 18.9411 206.181 27.8058 206.181 41.9924C206.181 56.179 197.528 65.2041 186.651 65.2041C180.141 65.2041 175.458 62.0611 172.996 58.2741V86L159.419 85.997ZM172.916 42.0713C172.916 49.2445 177.521 53.1948 182.601 53.1948C187.761 53.1948 192.366 49.1642 192.366 41.9913C192.366 34.8184 187.762 30.9492 182.601 30.9492C177.52 30.9489 172.916 34.8995 172.916 42.0709V42.0713ZM291.605 85.917L301.767 63.0268L283.744 19.585H298.909L309.15 47.7142L319.312 19.585H334L306.213 85.917H291.605ZM261.515 64.559V31.0292H256.593V19.585H261.515V18.2953C261.515 6.52897 268.66 0.725399 282.158 1.45306V13.1375C276.918 12.8139 275.089 14.4269 275.089 19.1814V19.5847H282.393V31.0292H275.091V64.559H261.515ZM236.745 64.559V19.585H250.321V64.559H236.745ZM213.326 64.559V4.91484H226.901V64.559H213.326ZM136.396 64.559V40.1365C136.396 34.2518 133.061 31.0281 127.901 31.0281C122.742 31.0281 119.407 34.2518 119.407 40.1365V64.5575H105.91V40.1365C105.91 34.2518 102.576 31.0281 97.4164 31.0281C92.2569 31.0281 88.9197 34.2526 88.9197 40.1365V64.5575H75.3453V19.585H88.9208V25.2272C91.5416 21.599 96.0679 19.1014 101.862 19.1014C108.53 19.1014 113.929 22.0815 116.946 27.4848C118.55 24.929 120.756 22.823 123.363 21.3587C125.97 19.8944 128.895 19.1184 131.871 19.1014C142.828 19.1014 149.894 26.1932 149.894 38.2828V64.559H136.396ZM51.9235 64.559V19.585H65.5016V64.559H51.9235ZM0 47.1068L0.0740131 47.0661L1.49358 45.9835L2.92019 47.0721H3.009L4.4356 45.9835L5.87405 47.0804H5.93955L7.37836 45.9835L8.82865 47.0899H8.86862L10.3204 45.9835L11.7829 47.1008H11.7992L13.2613 45.9835L14.7338 47.108H14.7379C14.7379 47.108 14.7379 47.1313 14.7379 47.1219C15.1579 51.4641 17.9086 53.5151 21.7828 53.5151C25.8324 53.5151 28.4232 51.5034 28.4232 48.2057C28.421 37.746 0 43.3806 0.160238 23.3467C0.160238 12.6464 8.98741 6.6942 20.8917 6.6942C33.2811 6.6942 41.6231 12.8052 42.1897 23.5866H27.2076C26.9648 19.9672 24.374 17.7951 20.6482 17.7151C17.3291 17.6352 14.8185 19.324 14.8185 22.8642C14.8185 32.6788 42.9176 28.2532 42.9176 47.1574C42.9176 56.6517 35.4682 64.5353 22.1873 64.5353C9.97215 64.536 0.422985 58.5148 0 47.1068ZM235.475 7.49542C235.475 3.30485 238.729 0 243.574 0C248.337 0 251.592 3.30447 251.592 7.49504C251.592 11.6068 248.336 14.9105 243.574 14.9105C238.729 14.9109 235.475 11.6064 235.475 7.49542ZM50.6534 7.49542C50.6534 3.30485 53.9085 0 58.7523 0C63.5158 0 66.7713 3.30447 66.7713 7.49504C66.7713 11.6068 63.5147 14.9105 58.7523 14.9105C53.9085 14.9109 50.6534 11.6064 50.6534 7.49542V7.49542Z" fill="url(#paint0_linear_204_2)"/>
<defs>
<linearGradient id="paint0_linear_204_2" x1="-2.60247e-08" y1="39.388" x2="333.207" y2="56.2111" gradientUnits="userSpaceOnUse">
<stop stop-color="#3E84E0"/>
<stop offset="1" stop-color="#514A9D"/>
</linearGradient>
</defs>
</svg>
